<svg width="277" height="405" viewBox="0 0 277 405" fill="none" xmlns="http://www.w3.org/2000/svg">
<path d="M235.783 324.344L233.782 322.814C260.405 287.859 274.481 246.101 274.481 202.035C274.481 133.772 240.138 70.9703 182.609 34.0376L183.974 31.9191C242.233 69.299 277 132.901 277 202.035C277 246.642 262.735 288.941 235.783 324.344Z" fill="#6B9BA5"/>
<path d="M75.0118 404.023C-36.3748 404.023 -127 313.398 -127 202.012C-127 90.6251 -36.3748 0 75.0118 0V2.51865C-34.986 2.51865 -124.458 92.0139 -124.458 201.988C-124.458 311.986 -34.9625 401.458 75.0118 401.458C108.249 401.458 141.156 393.125 170.156 377.354L171.357 379.566C141.98 395.596 108.649 404.023 75.0118 404.023Z" fill="#6B9BA5"/>
<path d="M75.0116 384.533C55.0034 384.533 35.3483 381.308 16.5642 374.976L18.1884 370.198C36.4547 376.365 55.5683 379.496 75.0351 379.496C166.437 379.496 242.35 311.021 251.554 220.208L256.591 220.725C247.082 314.081 169.026 384.533 75.0116 384.533Z" fill="#6B9BA5"/>
<path d="M250.189 173.671C243.575 132.501 222.437 94.7682 190.635 67.4394C158.505 39.8046 117.429 24.5984 75.0118 24.5984C40.7626 24.5984 7.52545 34.3671 -21.1215 52.8687C-54.4998 74.4305 -79.969 106.914 -92.8449 144.341L-97.6233 142.694C-84.3944 104.207 -58.1955 70.8054 -23.8756 48.6317C5.59526 29.6122 39.7739 19.561 74.9882 19.561C118.63 19.561 160.859 35.2144 193.907 63.626C226.603 91.7316 248.353 130.547 255.156 172.894L250.189 173.671Z" fill="#6B9BA5"/>
<path d="M75.012 333.83C2.32358 333.83 -56.8064 274.7 -56.8064 202.011C-56.8064 172.588 -47.3202 144.765 -29.407 121.555L-25.4054 124.639C-42.6359 146.977 -51.7455 173.718 -51.7455 202.011C-51.7455 271.899 5.12472 328.769 75.012 328.769C87.4171 328.769 99.6809 326.98 111.427 323.449L112.886 328.298C100.646 331.994 87.8879 333.83 75.012 333.83Z" fill="#6B9BA5"/>
<path d="M164.036 299.228L160.623 295.509C186.775 271.546 201.769 237.485 201.769 202.035C201.769 177.084 194.519 152.933 180.819 132.195L185.033 129.417C199.298 150.979 206.83 176.095 206.83 202.059C206.807 238.897 191.224 274.324 164.036 299.228Z" fill="#6B9BA5"/>
<path d="M153.867 102.771C131.246 84.7641 103.965 75.2544 75.0117 75.2544C49.6131 75.2544 25.109 82.7398 4.13574 96.9103L1.31104 92.7203C23.1082 77.9849 48.6009 70.217 75.0117 70.217C105.142 70.217 133.506 80.1034 157.022 98.8405L153.867 102.771Z" fill="#6B9BA5"/>
<path d="M75.0118 311.185C57.2634 311.185 39.6326 306.831 24.0498 298.592L25.2268 296.356C40.4565 304.406 57.6635 308.667 74.9882 308.667C122.843 308.667 165.119 276.489 177.807 230.399L180.231 231.082C167.285 278.254 123.996 311.185 75.0118 311.185Z" fill="#6B9BA5"/>
<path d="M-2.17285 279.243C-22.793 258.623 -34.1624 231.2 -34.1624 202.035C-34.1624 141.846 14.7988 92.8613 75.0116 92.8613C135.201 92.8613 184.185 141.846 184.185 202.035H181.667C181.667 143.235 133.835 95.4035 75.0351 95.4035C16.2346 95.4035 -31.5966 143.235 -31.5966 202.035C-31.5966 230.517 -20.5097 257.305 -0.336812 277.454L-2.17285 279.243Z" fill="#6B9BA5"/>
<path d="M75.0116 269.922C37.5611 269.922 7.10156 239.462 7.10156 202.012C7.10156 164.561 37.5611 134.102 75.0116 134.102V139.163C40.3622 139.163 12.1624 167.362 12.1624 202.012C12.1624 236.661 40.3622 264.861 75.0116 264.861C109.661 264.861 137.861 236.661 137.861 202.012H142.922C142.898 239.462 112.439 269.922 75.0116 269.922Z" fill="#6B9BA5"/>
<path d="M75.0118 235.767C56.3924 235.767 41.2568 220.631 41.2568 202.012H43.7755C43.7755 219.219 57.7812 233.224 74.9882 233.224C92.1952 233.224 106.201 219.219 106.201 202.012C106.201 184.805 92.1952 170.799 74.9882 170.799C65.4314 170.799 56.5336 175.083 50.5547 182.568L48.5774 180.991C55.0271 172.894 64.6546 168.257 74.9882 168.257C93.6075 168.257 108.743 183.392 108.743 202.012C108.743 220.631 93.6076 235.767 75.0118 235.767Z" fill="#6B9BA5"/>
</svg>
