<svg width="196" height="130" viewBox="0 0 196 130" fill="none" xmlns="http://www.w3.org/2000/svg">
<path d="M167.491 104.413L145.513 111.822L137.988 89.8758L116.01 97.2847L108.494 75.3431L89.1095 81.8782L82.4717 62.5209L60.4938 69.9298L52.9688 47.9838L30.9908 55.3927L23.4748 33.4511L1.6575 40.8054L2.48565 43.2424L21.8704 36.7073L29.3864 58.6489L51.3644 51.24L58.8893 73.186L80.8673 65.7771L87.5007 85.1434L106.89 78.5993L114.406 100.541L136.384 93.132L143.909 115.078L165.887 107.669L172.525 127.026L174.953 126.194L167.491 104.413Z" fill="#0B315E"/>
<path d="M180.419 78.1751L158.441 85.584L150.917 63.638L128.939 71.0469L121.423 49.1053L103.988 54.985L102.371 58.2457L119.818 52.3615L127.334 74.303L149.312 66.8941L156.837 88.8402L178.815 81.4313L185.453 100.789L187.885 99.947L180.419 78.1751Z" fill="#FF9D00"/>
</svg>
