<svg width="186" height="153" viewBox="0 0 186 153" fill="none" xmlns="http://www.w3.org/2000/svg">
<path d="M160.909 33.2867L157.045 56.1558L134.149 52.4096L130.286 75.2787L107.398 71.5267L103.991 91.6976L83.7953 88.3937L79.9317 111.263L57.0359 107.517L53.1723 130.386L30.2846 126.634L26.4489 149.335L28.9878 149.758L32.3951 129.587L55.2828 133.339L59.1464 110.47L82.0422 114.216L85.9058 91.3471L106.107 94.6591L109.508 74.4801L132.396 78.2321L136.26 55.363L159.156 59.1092L163.019 36.24L183.214 39.5439L183.629 37.0108L160.909 33.2867Z" fill="#0B315E"/>
<path d="M143.902 9.48882L140.038 32.3579L117.143 28.6118L113.279 51.4809L90.3913 47.7289L87.3288 65.8712L89.437 68.8385L92.5019 50.6822L115.39 54.4342L119.253 31.5651L142.149 35.3113L146.013 12.4422L166.208 15.7461L166.616 13.2048L143.902 9.48882Z" fill="#FF9D00"/>
</svg>
